<svg id="Layer_1" data-name="Layer 1" xmlns="http://www.w3.org/2000/svg" viewBox="0 0 74.14 63.2"><title>Untitled-2</title><circle cx="24.12" cy="5.09" r="4.84" style="fill:none;stroke:#000;stroke-miterlimit:10;stroke-width:0.5px"/><circle cx="53.45" cy="7.6" r="6.17" style="fill:none;stroke:#000;stroke-miterlimit:10;stroke-width:0.5px"/><circle cx="6.42" cy="31.67" r="6.17" style="fill:none;stroke:#000;stroke-miterlimit:10;stroke-width:0.5px"/><circle cx="13.22" cy="56.65" r="4.84" style="fill:none;stroke:#000;stroke-miterlimit:10;stroke-width:0.5px"/><circle cx="69.05" cy="25.75" r="4.84" style="fill:none;stroke:#000;stroke-miterlimit:10;stroke-width:0.5px"/><circle cx="65.79" cy="54.03" r="6.17" style="fill:none;stroke:#000;stroke-miterlimit:10;stroke-width:0.5px"/><path d="M268.77,413.14s-3.53-4.94-3.9-14.61" transform="translate(-257.92 -360.72)" style="fill:none;stroke:#000;stroke-miterlimit:10;stroke-width:0.5px"/><path d="M265.37,386.22a52.57,52.57,0,0,1,12.53-17.91" transform="translate(-257.92 -360.72)" style="fill:none;stroke:#000;stroke-miterlimit:10;stroke-width:0.5px"/><path d="M286.87,365.8A67,67,0,0,1,305.2,367" transform="translate(-257.92 -360.72)" style="fill:none;stroke:#000;stroke-miterlimit:10;stroke-width:0.5px"/><path d="M316.33,371.92a37.57,37.57,0,0,1,7.8,10.63" transform="translate(-257.92 -360.72)" style="fill:none;stroke:#000;stroke-miterlimit:10;stroke-width:0.5px"/><path d="M327,391.3s0.93,7-1.41,17.56" transform="translate(-257.92 -360.72)" style="fill:none;stroke:#000;stroke-miterlimit:10;stroke-width:0.5px"/><path d="M285.61,369.06s17.3,13.18,34.62,40.59" transform="translate(-257.92 -360.72)" style="fill:none;stroke:#000;stroke-miterlimit:10;stroke-width:0.5px"/><path d="M268.9,388.25s10.32-8.68,36.3-18.59" transform="translate(-257.92 -360.72)" style="fill:none;stroke:#000;stroke-miterlimit:10;stroke-width:0.5px"/><path d="M280.32,370.64s-5.85,24.24-8.26,41.89" transform="translate(-257.92 -360.72)" style="fill:none;stroke:#000;stroke-miterlimit:10;stroke-width:0.5px"/><path d="M270.17,390.4s20.15-8.87,52-4.88" transform="translate(-257.92 -360.72)" style="fill:none;stroke:#000;stroke-miterlimit:10;stroke-width:0.5px"/><path d="M324.17,390.4s-3.43,10.52-18.58,18.45" transform="translate(-257.92 -360.72)" style="fill:none;stroke:#000;stroke-miterlimit:10;stroke-width:0.5px"/><path d="M267.85,397.62s6.8,11.63,18.07,14.15" transform="translate(-257.92 -360.72)" style="fill:none;stroke:#000;stroke-miterlimit:10;stroke-width:0.5px"/><circle cx="37.41" cy="46.94" r="10.26" style="fill:none;stroke:#000;stroke-miterlimit:10"/><path d="M277.12,423.87c0.22-3.29,8.61-5.94,18.92-5.94s18.73,2.65,18.92,6" transform="translate(-257.92 -360.72)" style="fill:none;stroke:#000;stroke-miterlimit:10"/></svg>