<svg id="Layer_1" data-name="Layer 1" xmlns="http://www.w3.org/2000/svg" viewBox="0 0 105.65 69.26"><title>Cryptography</title><path d="M305.36,423.76l-12.68-6.9a17.71,17.71,0,0,1-9.27-16.25l0.85-24.46,21.11-7,21.11,7,0.85,24.46A17.72,17.72,0,0,1,318,416.85Z" transform="translate(-252.61 -361.83)" style="fill:none;stroke-miterlimit:10"/><path d="M345.07,418.26v-4.73h-15a22.39,22.39,0,0,1-8.77,8.59l-16,8.69-16-8.69a22.39,22.39,0,0,1-8.61-8.3H265.63v4.43" transform="translate(-252.61 -361.83)" style="fill:none;stroke-miterlimit:10;stroke-width:0.5px"/><path d="M265.63,398.63v4.75h12.1q0-.85,0-1.72l1.07-30.78,26.57-8.79,26.56,8.79,0.87,25V396l0.2,5.65q0,0.88,0,1.74h12.08V398.7" transform="translate(-252.61 -361.83)" style="fill:none;stroke-miterlimit:10;stroke-width:0.5px"/><path d="M332.79,405.62a22.31,22.31,0,0,1-1.59,5.69" transform="translate(-252.61 -361.83)" style="fill:none;stroke-miterlimit:10;stroke-width:0.5px"/><circle cx="101.69" cy="46.63" r="3.72" style="fill:none;stroke-miterlimit:10;stroke-width:0.5px"/><circle cx="3.97" cy="46.63" r="3.72" style="fill:none;stroke-miterlimit:10;stroke-width:0.5px"/><circle cx="92.46" cy="31.3" r="3.72" style="fill:none;stroke-miterlimit:10;stroke-width:0.5px"/><circle cx="13.16" cy="31.3" r="3.72" style="fill:none;stroke-miterlimit:10;stroke-width:0.5px"/><line x1="96.18" y1="46.63" x2="79.58" y2="46.63" style="fill:none;stroke-miterlimit:10;stroke-width:0.5px"/><line x1="26.12" y1="46.63" x2="9.52" y2="46.63" style="fill:none;stroke-miterlimit:10;stroke-width:0.5px"/><circle cx="92.46" cy="61.92" r="3.72" style="fill:none;stroke-miterlimit:10;stroke-width:0.5px"/><circle cx="13.16" cy="61.92" r="3.72" style="fill:none;stroke-miterlimit:10;stroke-width:0.5px"/><path d="M279.53,411.31a22.31,22.31,0,0,1-1.59-5.69" transform="translate(-252.61 -361.83)" style="fill:none;stroke-miterlimit:10;stroke-width:0.5px"/><line x1="52.72" y1="41.54" x2="52.72" y2="45.95" style="fill:none;stroke-miterlimit:10"/><path d="M312.41,391.42V385.7a7.09,7.09,0,0,0-14.18,0v5.74" transform="translate(-252.61 -361.83)" style="fill:none;stroke-miterlimit:10"/><path d="M294.16,391v16c0,2.43,5.17,5.3,11.2,5.3s11.2-2.87,11.2-5.3V391H294.16Z" transform="translate(-252.61 -361.83)" style="fill:none;stroke-miterlimit:10"/><circle cx="52.76" cy="37.62" r="3.36" style="fill:none;stroke-miterlimit:10"/><path d="M308.22,389.64v-4.06a2.89,2.89,0,0,0-5.79,0v4.07" transform="translate(-252.61 -361.83)" style="fill:none;stroke-miterlimit:10"/></svg>
